<?xml version="1.0" encoding="UTF-8" standalone="no"?>
<!-- Created with Inkscape (http://www.inkscape.org/) -->

<svg
   width="67.046486mm"
   height="43.914181mm"
   viewBox="0 0 67.046486 43.914181"
   version="1.1"
   id="svg1"
   xmlns="http://www.w3.org/2000/svg"
   xmlns:svg="http://www.w3.org/2000/svg">
  <defs
     id="defs1" />
  <g
     id="layer1"
     transform="translate(-29.352519,-51.234961)">
    <g
       id="g2">
      <path
         style="opacity:0.95;fill:#a6aedb;fill-opacity:1;stroke:#6e68bb;stroke-width:2.75605;stroke-linecap:square;stroke-dasharray:none;stroke-opacity:1"
         d="m 41.470709,52.654442 c 0,0 -14.405056,36.141482 -9.849366,39.896521 4.156212,2.900933 44.16285,-0.282131 44.16285,-0.282131 l 0.0932,-4.649151 c 0,0 -29.779537,2.49589 -33.93575,-0.405045 -2.684979,-3.945052 8.762736,-34.594296 8.762736,-34.594296 z"
         id="path1" />
      <path
         id="path2"
         style="opacity:0.95;fill:#a6aedb;fill-opacity:1;stroke:#6e68bb;stroke-width:2;stroke-linecap:square;stroke-dasharray:none;stroke-opacity:1"
         d="m 87.195127,62.567213 c -0.09394,-0.0053 -0.182285,-0.007 -0.265146,-0.0053 -1.953021,0.04134 -8.741367,3.593662 -11.399963,6.608305 -3.664839,2.928534 -15.99357,12.575663 -18.305768,11.650903 -2.719307,-1.087581 0.294265,-8.799 0.294265,-8.799 0,0 7.478561,0.01937 13.233399,-1.484823 1.669037,-5.249638 -5.218017,-7.701348 -7.869583,-7.645215 -2.651568,0.05613 -14.225575,6.585419 -12.260177,9.451827 1.965397,2.866406 -1.809057,10.568086 4.067267,11.85671 4.338316,0.951354 15.209292,-5.22696 20.611554,-8.531006 -0.07241,3.314578 -0.647494,7.305342 3.436096,8.200836 5.876325,1.288627 13.105659,-2.854054 13.105659,-2.854054 l -0.120681,-3.89404 c 0,0 -7.730845,4.456178 -10.45015,3.368595 -2.719306,-1.087581 0.293774,-8.799539 0.293774,-8.799539 0,0 10.314417,0.153896 12.929524,-2.564391 3.579713,-2.928021 -4.387939,-6.396917 -7.30007,-6.559819 z" />
    </g>
  </g>
</svg>
